# xmcd
#
# Track frame offsets: 
#        150
#        17545
#        48932
#
# Disc length: 1125 seconds
#
# Revision: 0
# Processed by: cddbd v1.5.2PL0 Copyright (c) Steve Scherf et al.
# Submitted via: ExactAudioCopy v1.0b3
#
DISCID=17046303
DTITLE=Stella - Eternity
DYEAR=1900
DGENRE=
TTITLE0=Eternity (Single Cut)
TTITLE1=Eternity (Lovely Clouds Mix)
TTITLE2=Eternity (Club Mix)
EXTD=
EXTT0=
EXTT1=
EXTT2=
PLAYORDER=
